<svg width="718" height="302" xmlns="http://www.w3.org/2000/svg" xmlns:xlink="http://www.w3.org/1999/xlink" overflow="hidden"><defs><clipPath id="clip0"><path d="M0 0 718 0 718 302 0 302Z" fill-rule="evenodd" clip-rule="evenodd"/></clipPath></defs><g clip-path="url(#clip0)"><rect x="0" y="0" width="717.375" height="302" fill="#FFFFFF" transform="scale(1.00087 1)"/><path d="M252.085 47.9471 441.383 47.9471 441.383 99.0906 252.085 99.0906Z" fill="#FBE5D6" fill-rule="evenodd" transform="matrix(1.00087 0 -0 1 29.6738 15.1499)"/><path d="M441.383 47.9471 658.079 47.9471 658.079 99.0906 441.383 99.0906Z" fill="#E2F0D9" fill-rule="evenodd" transform="matrix(1.00087 0 -0 1 29.6738 15.1499)"/><path d="M112.603 99.0906 252.085 99.0906 252.085 185.395 112.603 185.395Z" fill="#FBE5D6" fill-rule="evenodd" transform="matrix(1.00087 0 -0 1 29.6738 15.1499)"/><path d="M112.603 185.395 252.085 185.395 252.085 271.7 112.603 271.7Z" fill="#E2F0D9" fill-rule="evenodd" transform="matrix(1.00087 0 -0 1 29.6738 15.1499)"/><path d="M112.603 98.4247 112.603 272.366" stroke="#E7E6E6" stroke-width="1.33186" stroke-linejoin="round" stroke-miterlimit="10" fill="none" fill-rule="evenodd" transform="matrix(1.00087 0 -0 1 29.6738 15.1499)"/><path d="M252.085 47.2811 252.085 272.366" stroke="#E7E6E6" stroke-width="1.33186" stroke-linejoin="round" stroke-miterlimit="10" fill="none" fill-rule="evenodd" transform="matrix(1.00087 0 -0 1 29.6738 15.1499)"/><path d="M441.383 47.2811 441.383 272.366" stroke="#E7E6E6" stroke-width="1.33186" stroke-linejoin="round" stroke-miterlimit="10" fill="none" fill-rule="evenodd" transform="matrix(1.00087 0 -0 1 29.6738 15.1499)"/><path d="M251.419 47.9471 658.745 47.9471" stroke="#E7E6E6" stroke-width="1.33186" stroke-linejoin="round" stroke-miterlimit="10" fill="none" fill-rule="evenodd" transform="matrix(1.00087 0 -0 1 29.6738 15.1499)"/><path d="M111.937 99.0906 658.745 99.0906" stroke="#E7E6E6" stroke-width="1.33186" stroke-linejoin="round" stroke-miterlimit="10" fill="none" fill-rule="evenodd" transform="matrix(1.00087 0 -0 1 29.6738 15.1499)"/><path d="M111.937 185.395 658.745 185.395" stroke="#E7E6E6" stroke-width="1.33186" stroke-linejoin="round" stroke-miterlimit="10" fill="none" fill-rule="evenodd" transform="matrix(1.00087 0 -0 1 29.6738 15.1499)"/><path d="M658.079 47.2811 658.079 272.366" stroke="#E7E6E6" stroke-width="1.33186" stroke-linejoin="round" stroke-miterlimit="10" fill="none" fill-rule="evenodd" transform="matrix(1.00087 0 -0 1 29.6738 15.1499)"/><path d="M111.937 271.7 658.745 271.7" stroke="#E7E6E6" stroke-width="1.33186" stroke-linejoin="round" stroke-miterlimit="10" fill="none" fill-rule="evenodd" transform="matrix(1.00087 0 -0 1 29.6738 15.1499)"/><text font-family="Arial,Arial_MSFontService,sans-serif" font-weight="700" font-size="16" transform="matrix(1 0 0 0.999129 113.253 71)">Error types<tspan font-weight="400" x="293.584" y="-26.0227">Null </tspan><tspan font-weight="400" x="325.41" y="-26.0227">hypothesis </tspan><tspan font-weight="400" x="406.058" y="-26.0227">(H</tspan><tspan font-weight="400" font-size="11" x="422.888" y="-23.02">0</tspan><tspan font-weight="400" x="428.886" y="-26.0227">) </tspan><tspan font-weight="400" x="438.717" y="-26.0227">is</tspan><tspan font-size="19" x="243.809" y="24.0209">True</tspan><tspan font-size="19" x="442.886" y="24.0209">False</tspan></text><text font-family="Arial,Arial_MSFontService,sans-serif" font-weight="400" font-size="16" transform="matrix(6.12323e-17 -0.998259 1.00087 6.1179e-17 73.2274 231)">Decision<tspan x="-4.00697" y="19">about null</tspan><tspan x="-24.0418" y="38">hypothesis </tspan><tspan x="57.0994" y="38">(H</tspan><tspan font-size="11" x="74.129" y="40.9967">0</tspan><tspan x="80.1395" y="38">)</tspan></text><text font-family="Arial,Arial_MSFontService,sans-serif" font-weight="700" font-size="19" transform="matrix(1 0 0 0.999129 161.022 164)">Don’t reject<tspan font-weight="400" font-size="16" x="154.536" y="-20.0174">Correct inference</tspan><tspan font-weight="400" font-size="16" x="164.28" y="-1.00087">(true negative</tspan><tspan font-weight="400" font-size="16" x="261.757" y="-1.00087">)</tspan><tspan font-weight="400" font-size="16" x="148.704" y="18.0157">(</tspan><tspan font-weight="400" font-size="16" x="154.036" y="18.0157">probability = 1 </tspan><tspan font-weight="400" font-size="16" x="258.178" y="18.0157">-</tspan><tspan font-weight="400" font-size="16" x="268.009" y="18.0157">α</tspan><tspan font-weight="400" font-size="16" x="277.34" y="18.0157">)</tspan><tspan font-weight="400" font-size="16" x="375.725" y="-20.0174">Type</tspan><tspan font-weight="400" font-size="16" x="414.836" y="-20.0174">II </tspan><tspan font-weight="400" font-size="16" x="428.333" y="-20.0174">error</tspan><tspan font-weight="400" font-size="16" x="364.374" y="-1.00087">(false negative)</tspan><tspan font-weight="400" font-size="16" x="363.541" y="18.0157">(probability = β</tspan><tspan font-weight="400" font-size="16" x="468.85" y="18.0157">)</tspan><tspan x="23.2446" y="86.0749">Reject</tspan><tspan font-weight="400" font-size="16" x="174.808" y="67.0584">Type I </tspan><tspan font-weight="400" font-size="16" x="222.916" y="67.0584">error</tspan><tspan font-weight="400" font-size="16" x="164.283" y="86.0749">(false positive</tspan><tspan font-weight="400" font-size="16" x="261.761" y="86.0749">)</tspan><tspan font-weight="400" font-size="16" x="160.284" y="105.091">(</tspan><tspan font-weight="400" font-size="16" x="165.616" y="105.091">probability </tspan><tspan font-weight="400" font-size="16" x="242.598" y="105.091">= α)</tspan><tspan font-weight="400" font-size="16" x="357.713" y="67.0584">Correct </tspan><tspan font-weight="400" font-size="16" x="414.533" y="67.0584">inference</tspan><tspan font-weight="400" font-size="16" x="370.543" y="86.0749">(true positive</tspan><tspan font-weight="400" font-size="16" x="461.855" y="86.0749">)</tspan><tspan font-weight="400" font-size="16" x="351.961" y="105.091">(</tspan><tspan font-weight="400" font-size="16" x="357.293" y="105.091">probability = 1 </tspan><tspan font-weight="400" font-size="16" x="461.435" y="105.091">-</tspan><tspan font-weight="400" font-size="16" x="471.266" y="105.091">β</tspan><tspan font-weight="400" font-size="16" x="480.431" y="105.091">)</tspan></text></g></svg>